<?xml version="1.0" encoding="utf-8"?>
<svg version="1.1" xmlns="http://www.w3.org/2000/svg" viewBox="0 0 1450 1950" xml:space="preserve">
	<style type="text/css">
		.box0 { fill: #B37516; }
		.box1 { fill: #CB7E07; }
		.text { font-family: 'Verdana'; font-weight: 500; }
		.label { fill: #007ACC; stroke: #007ACC; stroke-width: 22.222; }
		.label_text { fill: #FFFFFF; font-size: 150px; }
		.box_tongue { fill:#DF8700; }
		.box_inside { fill:#6B3800; }
		.puzzle_text { fill: #FEFEFE; font-family: 'Verdana'; font-style: italic; font-size: 90px; }
		.puzzle_foo { fill: #0077D1; }
		.puzzle_bar { fill: #005C9D; }
		.puzzle_baz { fill: #0293CC; }
		.puzzle_main { fill: #0957DA; }
		.title_text { fill: #043B52; font-size: 300px; }
	</style>
	<path class="box0" d="m 1317.3,1018 v 636.3 l -586,295.7 v -636 z" />
	<path class="box1" d="m 138.3,1018 593,296 v 636 l -593,-285 z" />
	<path class="label" d="m 842.6,1567.5 411.2,-206.9 1.2,240.9 -411.2,206.9 z" />
	<text transform="matrix(1.0113487,-0.50858252,0.00589123,0.98581609,0,0)" class="text label_text" x="870.29724" y="2245.0408">.d.ts</text>
	<path class="box_tongue" d="m 0,841.49999 581.5,-295.5 149.8,178 L 138.3,1018 Z" />
	<path class="box_tongue" d="M 0.1,1194.5 581.6,1490 731.3,1314 138.3,1018 Z" />
	<path class="box_tongue" d="M 1451.3,1195.5 869.5,1491 731.3,1314 l 586,-296 z" />
	<path class="box_tongue" d="m 1449.6,842.89999 -583.1,-292.9 -135.2,174 586,294.00001 z" />
	<path class="box_inside" d="m 731.3,723.99999 586,294.00001 -586,296 -593,-296 z" />
	<path class="puzzle_foo" d="m 350.8,9.899984 c 0,0 9,-15.6 23.4,-7.4 14.4,8.2 110.7,62.9 110.7,62.9 0,0 -4,10 -12,18.9 -8,8.9 -20.1,16.700006 -26.1,29.700006 -17.7,38.2 8.5,65.2 20.2,71.7 11.9,6.6 49.6,17.4 76.3,-20.9 10,-14.4 7.8,-25.8 11.2,-37.9 2.6,-9.4 9.2,-16.6 9.2,-16.6 l 113.3,64.4 c 0,0 11.1,8.8 3.5,22.1 -7.6,13.3 -69.6,121 -69.6,121 0,0 -3.4,22.6 57.2,32.6 19.4,3.2 35.1,32.2 20.5,57.8 -12.2,21.4 -40,31.5 -63.8,4.5 -39.8,-45.3 -52.7,-25.5 -52.7,-25.5 l -71.3,125.3 c 0,0 -4.8,9.7 -22.7,-0.5 -17.9,-10.2 -115.5,-65.7 -115.5,-65.7 0,0 -7,-4.4 -20.9,19.4 -13.9,23.7 -3.6,28.4 -14.7,47.2 -11.1,18.8 -36.1,25.9 -53,14.7 -16.8,-11.1 -24.7,-35.3 -14.3,-53.6 10.4,-18.3 16.5,-7.9 32.3,-35.7 15.8,-27.8 7.1,-28.5 7.1,-28.5 l -116.8,-66.4 c 0,0 -17.6,-5.8 -6.9,-24.7 10.8,-18.9 64.1,-112.8 64.1,-112.8 0,0 12,4.2 19.6,13.2 7.6,9.1 12.3,16 22.7,21.9 20.1,11.5 55,16.3 75.9,-20.1 20.9,-36.4 0.2,-68.8 -19.1,-77.8 -21.1,-9.8 -23.3,-5.1 -35.8,-9.3 -11.7,-3.9 -17.1,-9.6 -17.1,-9.6 z" />
	<text transform="matrix(0.86667066,0.50009456,-0.50009456,0.86527152,0,0)" class="puzzle_text" x="379.61407" y="168.67267">foo.ts</text>
	<path class="puzzle_bar" d="m 735.2,202.99999 c 0,0 0.1,-18 16.6,-18 16.5,0 126.5,0 126.5,0 0,0 1.4,10.6 -1.1,22.3 -2.6,11.7 -9.1,24.5 -8,38.7 3.5,42 39.3,52.5 52.6,52.4 13.5,-0.1 51.3,-9.4 55.6,-55.9 1.6,-17.5 -6,-26.3 -9,-38.5 -2.3,-9.4 -0.3,-19 -0.3,-19 h 129.5 c 0,0 13.9,2.2 13.9,17.5 0,15.3 -0.7,139.6 -0.7,139.6 0,0 8.2,21.3 65.4,0 18.3,-6.8 46.2,10.7 46.1,40.2 -0.1,24.7 -19.1,47.2 -52.9,35.4 -56.6,-19.7 -58,3.8 -58,3.8 v 144.2 c 0,0 0.7,10.8 -19.8,10.8 -20.5,0 -132,0 -132,0 0,0 -8.2,-0.3 -8.5,27.2 -0.3,27.5 10.8,26.5 10.5,48.3 -0.3,21.8 -18.5,40.3 -38.5,39 -20,-1.3 -38.7,-18.5 -38.7,-39.5 0,-21 10.3,-15 10.3,-47 0,-32 -7.8,-28.3 -7.8,-28.3 H 753.4 c 0,0 -18.1,3.7 -18.1,-18.1 0,-21.8 0,-129.7 0,-129.7 0,0 12.4,-2.3 23.4,1.8 11,4.2 18.5,7.8 30.3,7.8 23,0 55.5,-13 55.7,-55 0.2,-42 -33.6,-59.9 -54.7,-58.2 -23,1.9 -22.7,7.1 -35.5,9.7 -12,2.4 -19.5,0.2 -19.5,0.2 v -131.7 z" />
	<text class="puzzle_text" x="789.05682" y="547.68549">bar.ts</text>
	<path class="puzzle_baz" d="m 336.3,613.99999 c 0,0 0.1,-18 16.6,-18 16.5,0 126.5,0 126.5,0 0,0 1.4,10.6 -1.1,22.3 -2.6,11.7 -9.1,24.5 -8,38.7 3.5,42 39.3,52.5 52.6,52.4 13.5,-0.1 51.3,-9.4 55.6,-55.9 1.6,-17.5 -6,-26.3 -9,-38.5 -2.3,-9.4 -0.3,-19 -0.3,-19 h 129.5 c 0,0 13.9,2.2 13.9,17.5 0,15.3 -0.7,139.6 -0.7,139.6 0,0 8.2,21.3 65.4,0 18.3,-6.8 46.2,10.7 46.1,40.2 -0.1,24.7 -19.1,47.2 -52.9,35.4 -56.6,-19.7 -58,3.8 -58,3.8 v 144.2 c 0,0 0.7,10.8 -19.8,10.8 -20.5,0 -132,0 -132,0 0,0 -8.2,-0.3 -8.5,27.20001 -0.3,27.5 10.8,26.5 10.5,48.3 -0.3,21.8 -18.5,40.3 -38.5,39 -20,-1.3 -38.7,-18.5 -38.7,-39.5 0,-21 10.3,-15 10.3,-47 0,-32.00001 -7.8,-28.30001 -7.8,-28.30001 H 354.5 c 0,0 -18.1,3.7 -18.1,-18.1 0,-21.8 0,-129.8 0,-129.8 0,0 12.4,-2.3 23.4,1.8 11,4.2 18.5,7.8 30.3,7.8 23,0 55.5,-13 55.7,-55 0.2,-42 -33.6,-59.9 -54.7,-58.2 -23,1.9 -22.7,7.1 -35.5,9.7 -12,2.4 -19.5,0.2 -19.5,0.2 v -131.6 z" />
	<text class="puzzle_text" x="387.28241" y="957.40326">baz.ts</text>
	<path class="puzzle_main" d="m 735.2,613.99999 c 0,0 0.1,-18 16.6,-18 16.5,0 126.5,0 126.5,0 0,0 1.4,10.6 -1.1,22.3 -2.6,11.7 -9.1,24.5 -8,38.7 3.5,42 39.3,52.5 52.6,52.4 13.5,-0.1 51.3,-9.4 55.6,-55.9 1.6,-17.5 -6,-26.3 -9,-38.5 -2.3,-9.4 -0.3,-19 -0.3,-19 h 129.5 c 0,0 13.9,2.2 13.9,17.5 0,15.3 -0.7,139.6 -0.7,139.6 0,0 8.2,21.3 65.4,0 18.3,-6.8 46.2,10.7 46.1,40.2 -0.1,24.7 -19.1,47.2 -52.9,35.4 -56.6,-19.7 -58,3.8 -58,3.8 v 144.2 c 0,0 0.7,10.8 -19.8,10.8 -20.5,0 -132,0 -132,0 0,0 -8.2,-0.3 -8.5,27.20001 -0.3,27.5 10.8,26.5 10.5,48.3 -0.3,21.8 -18.5,40.3 -38.5,39 -20,-1.3 -38.7,-18.5 -38.7,-39.5 0,-21 10.3,-15 10.3,-47 0,-32.00001 -7.8,-28.30001 -7.8,-28.30001 H 753.4 c 0,0 -18.1,3.7 -18.1,-18.1 0,-21.8 0,-129.8 0,-129.8 0,0 12.4,-2.3 23.4,1.8 11,4.2 18.5,7.8 30.3,7.8 23,0 55.5,-13 55.7,-55 0.2,-42 -33.6,-59.9 -54.7,-58.2 -23,1.9 -22.7,7.1 -35.5,9.7 -12,2.4 -19.5,0.2 -19.5,0.2 v -131.6 z" />
	<text class="puzzle_text" x="751.3938" y="956.61426">main.ts</text>
</svg>